<?xml version="1.0" standalone="no"?>
<!DOCTYPE svg PUBLIC "-//W3C//DTD SVG 20010904//EN"
 "http://www.w3.org/TR/2001/REC-SVG-20010904/DTD/svg10.dtd">
<svg version="1.0" xmlns="http://www.w3.org/2000/svg"
 width="360.000000pt" height="360.000000pt" viewBox="0 0 360.000000 360.000000"
 preserveAspectRatio="xMidYMid meet">

<g transform="translate(0.000000,360.000000) scale(0.100000,-0.100000)"
fill="#000000" stroke="none">
<path d="M2220 3585 c-14 -7 -63 -17 -110 -20 -47 -4 -97 -14 -112 -23 -23
-13 -31 -14 -55 -3 -50 23 -118 37 -148 30 -29 -6 -124 -26 -173 -35 -34 -7
-84 -90 -80 -134 3 -31 7 -35 45 -45 60 -14 67 -24 53 -76 -7 -24 -21 -67 -32
-96 -19 -51 -20 -52 -51 -46 -46 8 -48 13 -32 67 21 70 20 73 -32 100 -93 48
-92 44 -49 120 24 42 36 76 34 94 -3 25 -7 27 -53 30 -81 5 -108 -5 -173 -64
l-62 -56 0 -86 c1 -119 19 -152 135 -243 50 -39 118 -85 153 -102 70 -33 77
-43 93 -119 6 -29 21 -84 34 -123 27 -79 55 -229 55 -291 0 -29 -5 -44 -16
-48 -32 -12 -28 -18 -69 97 -15 43 -23 51 -69 71 -28 13 -76 46 -108 74 -31
29 -72 59 -92 67 -19 8 -52 29 -72 47 l-36 32 7 117 c5 97 4 122 -9 148 -9 17
-22 31 -30 31 -31 0 -71 -79 -96 -190 -7 -30 -21 -71 -32 -90 l-20 -34 39 -76
c35 -69 37 -79 29 -119 l-9 -44 89 -84 c109 -103 139 -123 185 -123 62 0 67
-10 71 -152 4 -124 4 -127 38 -180 l35 -53 0 -276 1 -276 88 -94 c120 -129
119 -126 113 -278 -5 -127 -37 -535 -58 -733 -6 -59 -8 -116 -4 -127 3 -10 27
-35 52 -55 46 -36 48 -36 55 -16 4 12 12 162 18 333 5 172 12 377 16 457 6
149 -2 223 -43 375 -9 33 -19 121 -23 195 -7 151 -11 161 -93 274 l-50 69 5
102 c3 56 11 113 18 126 l13 23 16 -24 c9 -14 42 -50 73 -81 32 -31 58 -58 58
-61 0 -2 -7 -25 -16 -51 -15 -44 -14 -50 11 -149 37 -145 43 -147 64 -24 14
78 13 154 -3 191 -17 41 -9 71 28 104 17 15 55 50 85 77 l53 49 -5 -55 c-7
-81 -83 -373 -119 -454 l-31 -71 17 -165 c37 -375 44 -488 45 -665 0 -88 -4
-182 -10 -210 -11 -62 -24 -427 -16 -449 9 -22 29 -11 85 43 l42 41 0 127 c0
71 -7 173 -15 228 -9 62 -15 182 -15 315 0 155 -4 228 -14 261 -8 26 -16 67
-17 92 -3 44 0 49 55 107 63 66 64 68 37 165 -23 81 14 383 55 464 24 46 28
65 27 135 0 62 -5 91 -22 123 -11 23 -21 59 -21 79 0 32 9 44 74 108 61 59 77
81 91 126 29 94 114 240 181 310 l62 65 -5 80 c-5 72 -8 83 -35 112 l-31 32
12 106 c6 59 8 111 5 116 -17 27 -56 -11 -70 -67 -4 -16 -14 -42 -22 -59 -8
-16 -21 -61 -29 -100 -33 -160 -84 -223 -252 -310 -125 -65 -157 -92 -166
-138 -23 -113 -41 -135 -65 -77 -10 24 -10 43 -1 90 10 48 9 64 -2 82 -8 15
-13 56 -12 118 l0 94 70 54 c79 60 87 67 133 115 24 24 45 36 74 40 22 3 65
18 96 34 52 26 60 34 97 105 22 43 51 89 64 103 l25 25 -18 50 c-10 28 -16 63
-13 78 6 31 -24 96 -48 106 -20 7 -15 8 -45 -9z"/>
<path d="M2465 2613 c-69 -84 -100 -138 -131 -231 l-25 -73 68 -73 c37 -40
143 -153 235 -251 136 -144 175 -191 203 -249 90 -183 82 -338 -20 -441 -69
-68 -210 -114 -315 -101 l-45 5 33 -28 c46 -40 120 -61 211 -61 140 1 251 44
351 137 116 107 163 257 140 442 -38 300 -194 593 -441 825 -78 73 -191 166
-203 166 -3 0 -31 -30 -61 -67z"/>
<path d="M828 2338 c-216 -217 -337 -430 -384 -675 -45 -241 30 -524 163 -616
105 -72 244 -105 368 -88 85 12 187 62 224 110 l25 33 -54 -7 c-87 -12 -202
-8 -256 10 -103 34 -184 113 -214 208 -17 54 -15 166 5 233 9 32 33 90 52 128
43 87 154 199 388 395 88 74 164 138 168 142 19 15 -63 86 -126 109 -34 13
-101 50 -149 82 l-88 59 -122 -123z"/>
<path d="M1494 1235 c-11 -28 5 -231 31 -390 13 -82 27 -174 31 -203 4 -29 11
-55 15 -58 5 -3 9 0 9 6 0 7 7 136 16 287 l16 275 -29 30 c-15 16 -40 39 -56
50 -25 18 -28 18 -33 3z"/>
<path d="M2031 1174 c-36 -30 -38 -48 -15 -161 17 -87 32 -273 41 -525 3 -93
9 -168 14 -168 20 0 24 39 31 260 4 129 10 277 14 329 6 80 3 109 -16 192 -13
55 -27 99 -31 99 -4 0 -21 -12 -38 -26z"/>
</g>
</svg>
